<svg width="700" height="400" viewBox="0 0 700 400" fill="none" xmlns="http://www.w3.org/2000/svg">
<rect width="700" height="400" fill="#5554CB"/>
<rect x="169.5" y="149.5" width="93" height="101" stroke="white" stroke-width="15"/>
<path d="M205.592 234L176.12 202.032V234H162.68V163.728H176.12V199.44L204.056 163.824H220.568L191.672 200.112L223.352 234H205.592Z" fill="white"/>
<path d="M347.296 234L301.024 192.24V234H287.68V163.824H289.12L335.296 206.256V163.824H348.736V234H347.296ZM423.99 163.824C422.198 166.768 420.118 170.128 417.75 173.904C415.446 177.68 413.078 181.552 410.646 185.52C408.214 189.424 405.814 193.296 403.446 197.136C401.078 200.912 398.998 204.336 397.206 207.408V234H383.766V207.408C379.606 200.112 375.19 192.848 370.518 185.616C365.846 178.384 361.398 171.12 357.174 163.824H372.822C375.702 168.624 378.646 173.584 381.654 178.704C384.662 183.824 387.606 188.784 390.486 193.584C391.894 191.344 393.366 188.944 394.902 186.384C396.438 183.824 397.974 181.264 399.51 178.704C401.046 176.08 402.55 173.52 404.022 171.024C405.558 168.464 406.998 166.064 408.342 163.824H423.99ZM479.645 175.632H459.581V234H446.141V175.632H425.981V163.728H479.645V175.632ZM483.084 224.784L490.38 214.032C493.9 216.464 497.516 218.576 501.228 220.368C505.004 222.096 508.94 222.96 513.036 222.96C515.212 222.96 517.132 222.704 518.796 222.192C520.46 221.616 521.868 220.912 523.02 220.08C524.172 219.184 525.036 218.192 525.612 217.104C526.188 215.952 526.476 214.832 526.476 213.744C526.476 212.336 526.028 211.152 525.132 210.192C524.3 209.168 523.148 208.336 521.676 207.696C520.268 207.056 518.572 206.512 516.588 206.064C514.668 205.616 512.652 205.2 510.54 204.816C509.132 204.56 507.5 204.272 505.644 203.952C503.788 203.568 501.868 203.088 499.884 202.512C497.9 201.872 495.948 201.072 494.028 200.112C492.108 199.088 490.38 197.84 488.844 196.368C487.308 194.832 486.06 193.04 485.1 190.992C484.204 188.88 483.756 186.416 483.756 183.6C483.756 179.504 484.588 176.112 486.252 173.424C487.916 170.672 490.028 168.528 492.588 166.992C495.212 165.392 498.092 164.272 501.228 163.632C504.428 162.992 507.5 162.672 510.444 162.672C513.388 162.672 516.012 162.864 518.316 163.248C520.62 163.632 522.764 164.208 524.748 164.976C526.732 165.68 528.652 166.608 530.508 167.76C532.428 168.848 534.476 170.16 536.652 171.696L529.164 182.256C525.836 179.952 522.636 178.192 519.564 176.976C516.492 175.76 513.26 175.152 509.868 175.152C508.716 175.152 507.404 175.312 505.932 175.632C504.46 175.888 503.052 176.336 501.708 176.976C500.428 177.616 499.34 178.448 498.444 179.472C497.612 180.432 497.196 181.616 497.196 183.024C497.196 184.432 497.708 185.616 498.732 186.576C499.756 187.536 501.068 188.336 502.668 188.976C504.268 189.616 506.028 190.16 507.948 190.608C509.868 191.056 511.724 191.504 513.516 191.952C514.86 192.272 516.428 192.592 518.22 192.912C520.076 193.232 521.964 193.68 523.884 194.256C525.868 194.832 527.82 195.6 529.74 196.56C531.66 197.52 533.356 198.768 534.828 200.304C536.364 201.776 537.58 203.632 538.476 205.872C539.436 208.048 539.916 210.704 539.916 213.84C539.916 217.488 539.276 220.656 537.996 223.344C536.716 226.032 534.892 228.272 532.524 230.064C530.156 231.792 527.34 233.104 524.076 234C520.812 234.896 517.196 235.344 513.228 235.344C509.58 235.344 506.348 235.056 503.531 234.48C500.78 233.968 498.252 233.264 495.948 232.368C493.644 231.408 491.468 230.288 489.42 229.008C487.372 227.728 485.26 226.32 483.084 224.784Z" fill="white"/>
</svg>
